HIERARCHY
ROOT Hips
{
	OFFSET 0.000000 0.000000 0.000000
	CHANNELS 6 Xposition Yposition Zposition Zrotation Yrotation Xrotation 
	JOINT LHipJoint
	{
		OFFSET 0.000000 0.000000 0.000000
		CHANNELS 3 Zrotation Yrotation Xrotation
		JOINT LeftUpLeg
		{
			OFFSET 1.363060 -1.794630 0.839290
			CHANNELS 3 Zrotation Yrotation Xrotation
			JOINT LeftLeg
			{
				OFFSET 2.448110 -6.726130 0.000000
				CHANNELS 3 Zrotation Yrotation Xrotation
				JOINT LeftFoot
				{
					OFFSET 2.562200 -7.039590 0.000000
					CHANNELS 3 Zrotation Yrotation Xrotation
					JOINT LeftToeBase
					{
						OFFSET 0.157640 -0.433110 2.322550
						CHANNELS 3 Zrotation Yrotation Xrotation
						End Site
						{
							OFFSET 0.000000 0.000000 0.000000
						}
					}
				}
			}
		}
	}
	JOINT RHipJoint
	{
		OFFSET 0.000000 0.000000 0.000000
		CHANNELS 3 Zrotation Yrotation Xrotation
		JOINT RightUpLeg
		{
			OFFSET -1.305520 -1.794630 0.839290
			CHANNELS 3 Zrotation Yrotation Xrotation
			JOINT RightLeg
			{
				OFFSET -2.542530 -6.985550 0.000000
				CHANNELS 3 Zrotation Yrotation Xrotation
				JOINT RightFoot
				{
					OFFSET -2.568260 -7.056230 0.000000
					CHANNELS 3 Zrotation Yrotation Xrotation
					JOINT RightToeBase
					{
						OFFSET -0.164730 -0.452590 2.363150
						CHANNELS 3 Zrotation Yrotation Xrotation
						End Site
						{
							OFFSET 0.000000 0.000000 0.000000
						}
					}
				}
			}
		}
	}
	JOINT LowerBack
	{
		OFFSET 0.000000 0.000000 0.000000
		CHANNELS 3 Zrotation Yrotation Xrotation
		JOINT Spine
		{
			OFFSET 0.028270 2.035590 -0.193380
			CHANNELS 3 Zrotation Yrotation Xrotation
			JOINT Spine1
			{
				OFFSET 0.056720 2.048850 -0.042750
				CHANNELS 3 Zrotation Yrotation Xrotation
				JOINT Neck
				{
					OFFSET 0.000000 0.000000 0.000000
					CHANNELS 3 Zrotation Yrotation Xrotation
					JOINT Neck1
					{
						OFFSET -0.054170 1.746240 0.172020
						CHANNELS 3 Zrotation Yrotation Xrotation
						JOINT Head
						{
							OFFSET 0.104070 1.761360 -0.123970
							CHANNELS 3 Zrotation Yrotation Xrotation
							End Site
							{
								OFFSET 0.000000 0.000000 0.000000
							}
						}
					}
				}
				JOINT LeftShoulder
				{
					OFFSET 0.000000 0.000000 0.000000
					CHANNELS 3 Zrotation Yrotation Xrotation
					JOINT LeftArm
					{
						OFFSET 3.362410 1.200890 -0.311210
						CHANNELS 3 Zrotation Yrotation Xrotation
						JOINT LeftForeArm
						{
							OFFSET 4.983000 -0.000000 -0.000000
							CHANNELS 3 Zrotation Yrotation Xrotation
							JOINT LeftHand
							{
								OFFSET 3.483560 -0.000000 -0.000000
								CHANNELS 3 Zrotation Yrotation Xrotation
								JOINT LeftFingerBase
								{
									OFFSET 0.000000 0.000000 0.000000
									CHANNELS 3 Zrotation Yrotation Xrotation
									JOINT LeftHandIndex1
									{
										OFFSET 0.715260 -0.000000 -0.000000
										CHANNELS 3 Zrotation Yrotation Xrotation
										End Site
										{
											OFFSET 0.000000 0.000000 0.000000
										}
									}
								}
								JOINT LThumb
								{
									OFFSET 0.000000 0.000000 0.000000
									CHANNELS 3 Zrotation Yrotation Xrotation
									End Site
									{
										OFFSET 0.000000 0.000000 0.000000
									}
								}
							}
						}
					}
				}
				JOINT RightShoulder
				{
					OFFSET 0.000000 0.000000 0.000000
					CHANNELS 3 Zrotation Yrotation Xrotation
					JOINT RightArm
					{
						OFFSET -3.136600 1.374050 -0.404650
						CHANNELS 3 Zrotation Yrotation Xrotation
						JOINT RightForeArm
						{
							OFFSET -5.241900 -0.000000 -0.000000
							CHANNELS 3 Zrotation Yrotation Xrotation
							JOINT RightHand
							{
								OFFSET -3.444170 -0.000000 -0.000000
								CHANNELS 3 Zrotation Yrotation Xrotation
								JOINT RightFingerBase
								{
									OFFSET 0.000000 0.000000 0.000000
									CHANNELS 3 Zrotation Yrotation Xrotation
									JOINT RightHandIndex1
									{
										OFFSET -0.622530 -0.000000 -0.000000
										CHANNELS 3 Zrotation Yrotation Xrotation
										End Site
										{
											OFFSET 0.000000 0.000000 0.000000
										}
									}
								}
								JOINT RThumb
								{
									OFFSET 0.000000 0.000000 0.000000
									CHANNELS 3 Zrotation Yrotation Xrotation
									End Site
									{
										OFFSET 0.000000 0.000000 0.000000
									}
								}
							}
						}
					}
				}
			}
		}
	}
}
MOTION
Frames: 9
Frame Time: 0.008333
-11.095577 16.770591 -0.150238 -23.687170 76.575942 -5.278867 -9.109846 0.668668 1.667848 -17.118288 -0.406304 -44.145763 -2.235001 0.597697 25.352038 2.329657 10.038116 -9.718698 0.062700 -0.000000 -14.621400 10.927089 -2.823693 -2.624710 3.052455 -13.105214 -11.091900 0.477520 -2.664029 38.750637 0.182352 13.130454 22.158864 6.320200 0.000001 -94.474100 -0.853176 0.319099 1.439205 -1.049841 0.387151 -2.682196 -6.422499 0.341375 0.827742 9.640358 -3.447919 -5.236440 -3.041143 -0.253594 0.547156 0.000000 0.000000 0.000000 -4.777332 11.475177 2.815361 -71.707808 15.870883 6.548154 -3.929471 -23.416821 -0.016320 -10.187304 5.278603 -0.473897 -0.057086 -0.060628 -0.000000 0.000000 0.000000 0.000000 0.000000 0.000000 0.000000 12.380304 1.416411 0.070806 58.452188 29.271385 15.733671 1.206647 67.505836 0.036279 9.017720 9.211604 0.764402 -0.106464 -0.339846 -0.000000 0.000000 0.000000 0.000000 0.000000 0.000000 0.000000 
-10.883741 16.711315 -0.150483 -22.471732 76.681412 -4.465444 -9.124250 0.669349 1.708087 -17.101272 -1.392318 -44.003113 -2.056523 0.811293 28.076263 2.473546 10.572299 -10.882674 -0.203300 -0.000001 -10.317700 11.055094 -2.647372 -2.799844 2.147175 -13.828180 -12.137922 0.188642 -2.814252 42.125348 -0.076975 12.233346 24.064773 6.372600 0.000000 -92.839800 -1.237969 0.216802 1.532224 -1.131978 0.307285 -2.671913 -6.493006 0.261711 0.791755 9.743685 -3.461729 -5.221340 -3.077234 -0.256231 0.550122 0.000000 0.000000 0.000000 -4.789832 11.461120 2.813333 -71.686297 15.537343 6.325443 -3.943016 -23.109689 -0.016108 -10.055455 5.370069 -0.475489 -0.058239 -0.059150 -0.000000 0.000000 0.000000 0.000000 0.000000 0.000000 0.000000 12.603939 1.368485 0.003150 59.065323 28.507316 15.453015 1.218397 67.269688 0.036021 9.008902 9.223364 0.764408 -0.105700 -0.337776 -0.000000 0.000000 0.000000 0.000000 0.000000 0.000000 0.000000 
-10.676084 16.656881 -0.150893 -21.023458 76.806822 -3.382905 -9.137725 0.661440 1.714750 -17.238065 -2.260502 -43.806068 -1.906917 0.997781 30.615797 2.626102 11.142102 -12.143864 -0.514101 0.000000 -6.971001 11.159529 -2.442149 -2.942212 1.290225 -14.315340 -13.296535 -0.076541 -2.958551 45.520631 -0.358340 10.719080 25.706535 6.002000 0.000000 -90.415000 -1.651272 0.121729 1.630384 -1.219258 0.235886 -2.662089 -6.560138 0.190024 0.749915 9.814308 -3.461596 -5.209229 -3.115114 -0.258895 0.551352 0.000000 0.000000 0.000000 -4.809827 11.435322 2.813983 -71.595721 15.053738 6.205993 -3.955867 -22.809244 -0.015764 -9.887626 5.465736 -0.475475 -0.059606 -0.056972 -0.000000 0.000000 0.000000 0.000000 0.000000 0.000000 0.000000 12.802391 1.335582 -0.064827 59.757568 27.656378 15.074050 1.235645 66.906019 0.035620 8.961844 9.238114 0.761319 -0.104189 -0.335400 -0.000000 0.000000 0.000000 0.000000 0.000000 0.000000 0.000000 
-10.472635 16.609029 -0.151852 -19.435300 76.946237 -2.120276 -9.149632 0.646036 1.686878 -17.505420 -2.985297 -43.517288 -1.788234 1.151777 32.880565 2.786975 11.742429 -13.480322 -0.869900 -0.000001 -4.555200 11.242013 -2.221036 -3.047436 0.520001 -14.551964 -14.554614 -0.313430 -3.103774 48.876713 -0.650531 8.668300 26.966763 5.205500 -0.000000 -87.343500 -2.067483 0.037230 1.733343 -1.307116 0.174942 -2.652602 -6.624873 0.128372 0.703125 9.848997 -3.444708 -5.199485 -3.155927 -0.261676 0.551016 0.000000 0.000000 0.000000 -4.838740 11.398333 2.815911 -71.441447 14.417180 6.161236 -3.967389 -22.525686 -0.015283 -9.679711 5.559455 -0.472857 -0.061179 -0.054042 -0.000000 0.000000 0.000000 0.000000 0.000000 0.000000 0.000000 12.977784 1.319913 -0.131311 60.521221 26.717871 14.583581 1.258895 66.398001 0.035056 8.874582 9.252342 0.754735 -0.101895 -0.332529 -0.000000 0.000000 0.000000 0.000000 0.000000 0.000000 0.000000 
-10.273400 16.569238 -0.153447 -17.746685 77.096883 -0.720890 -9.157474 0.626600 1.624212 -17.886048 -3.556906 -43.092974 -1.701978 1.269667 34.793236 2.954498 12.363397 -14.860671 -1.267400 -0.000000 -2.965300 11.307302 -1.994767 -3.116108 -0.153150 -14.546642 -15.892743 -0.523250 -3.255645 52.131198 -0.941627 6.234909 27.757515 4.061900 -0.000000 -83.900799 -2.477366 -0.035625 1.844305 -1.394121 0.125142 -2.641703 -6.688140 0.077652 0.655651 9.850637 -3.419216 -5.194147 -3.201167 -0.264644 0.548445 0.000000 0.000000 0.000000 -4.871182 11.353893 2.816574 -71.232915 13.626907 6.161070 -3.977460 -22.274663 -0.014669 -9.432282 5.643924 -0.467233 -0.062929 -0.050365 -0.000000 0.000000 0.000000 0.000000 0.000000 0.000000 0.000000 13.144741 1.310836 -0.193100 61.340703 25.715117 13.987753 1.289483 65.720638 0.034294 8.739595 9.268213 0.744052 -0.098645 -0.328995 -0.000000 0.000000 0.000000 0.000000 0.000000 0.000000 0.000000 
-10.077949 16.538549 -0.156452 -16.112348 77.254042 0.661057 -9.161255 0.605868 1.530679 -18.332848 -3.966831 -42.517487 -1.646520 1.350909 36.315161 3.122137 12.971733 -16.248356 -1.697800 -0.000000 -2.065100 11.358975 -1.776429 -3.147287 -0.695689 -14.310262 -17.292221 -0.711401 -3.415600 55.219634 -1.219076 3.606136 28.030434 2.704700 0.000001 -80.322701 -2.842030 -0.094642 1.961321 -1.472994 0.086653 -2.629864 -6.750705 0.038081 0.607127 9.815221 -3.375073 -5.188992 -3.251208 -0.267880 0.544985 0.000000 0.000000 0.000000 -4.912613 11.300763 2.814426 -70.982087 12.703699 6.176239 -3.984992 -22.086085 -0.013932 -9.150763 5.710891 -0.458004 -0.064779 -0.045993 -0.000000 0.000000 0.000000 0.000000 0.000000 0.000000 0.000000 13.299288 1.316922 -0.248719 62.205478 24.644417 13.274373 1.327588 64.860780 0.033340 8.565064 9.278821 0.729373 -0.094556 -0.324509 -0.000000 0.000000 0.000000 0.000000 0.000000 0.000000 0.000000 
-9.885793 16.517599 -0.161300 -14.619788 77.417737 1.932450 -9.160927 0.587898 1.410929 -18.809400 -4.221319 -41.773942 -1.619860 1.396284 37.420097 3.281335 13.531825 -17.591738 -2.142600 -0.000000 -1.742001 11.400582 -1.573222 -3.144632 -1.101565 -13.870301 -18.728788 -0.884482 -3.581712 58.081941 -1.470649 0.989887 27.783151 1.299900 -0.000000 -76.856400 -3.142118 -0.140048 2.084906 -1.540026 0.058333 -2.615924 -6.812729 0.008699 0.561475 9.744867 -3.316700 -5.184033 -3.306379 -0.271402 0.540728 0.000000 0.000000 0.000000 -4.961274 11.243835 2.806820 -70.702943 11.666251 6.187475 -3.989394 -21.992147 -0.013098 -8.845669 5.751446 -0.445169 -0.066645 -0.041039 0.000000 0.000000 0.000000 0.000000 0.000000 0.000000 0.000000 13.448699 1.330729 -0.295611 63.096963 23.530359 12.453893 1.374384 63.797772 0.032192 8.350875 9.284179 0.710895 -0.089545 -0.318857 -0.000000 0.000000 0.000000 0.000000 0.000000 0.000000 0.000000 
-9.696296 16.506484 -0.168499 -13.359205 77.591544 2.998134 -9.158191 0.576131 1.271680 -19.276918 -4.335169 -40.858218 -1.618713 1.408239 38.105039 3.421250 14.001639 -18.834666 -2.575700 0.000000 -1.887100 11.433545 -1.389352 -3.112774 -1.368435 -13.259340 -20.176740 -1.047443 -3.748677 60.664301 -1.685358 -1.425880 27.051292 0.003100 0.000000 -73.669300 -3.358325 -0.173271 2.213662 -1.591293 0.037806 -2.599285 -6.873929 -0.012742 0.521796 9.641889 -3.247115 -5.178226 -3.366269 -0.275192 0.536155 0.000000 0.000000 0.000000 -5.016310 11.185661 2.791525 -70.410736 10.542728 6.185681 -3.989874 -22.032030 -0.012194 -8.532201 5.757025 -0.429131 -0.068428 -0.035664 0.000000 0.000000 0.000000 0.000000 0.000000 0.000000 0.000000 13.596011 1.346104 -0.331637 63.997153 22.394598 11.537265 1.431002 62.515855 0.030872 8.101353 9.282094 0.688720 -0.083583 -0.311833 0.000000 0.000000 0.000000 0.000000 0.000000 0.000000 0.000000 
-9.508754 16.504881 -0.178558 -12.408621 77.783426 3.775942 -9.156070 0.572823 1.121362 -19.699255 -4.332489 -39.778749 -1.638799 1.390614 38.388633 3.530433 14.339433 -19.922656 -2.965700 -0.000000 -2.384400 11.457174 -1.226174 -3.057167 -1.498569 -12.514493 -21.610985 -1.201695 -3.909298 62.921050 -1.854267 -3.495345 25.896901 -1.067500 0.000001 -70.858100 -3.475439 -0.197332 2.344272 -1.623421 0.021279 -2.579892 -6.933478 -0.029971 0.490458 9.508937 -3.164991 -5.169729 -3.429704 -0.279188 0.532014 0.000000 0.000000 0.000000 -5.074294 11.130963 2.767406 -70.120001 9.362792 6.178296 -3.985881 -22.244162 -0.011241 -8.228883 5.719961 -0.410489 -0.070056 -0.030038 0.000000 0.000000 0.000000 0.000000 0.000000 0.000000 0.000000 13.739419 1.361649 -0.355862 64.889799 21.252395 10.531316 1.498177 61.006914 0.029425 7.824446 9.267630 0.663241 -0.076721 -0.303279 0.000000 0.000000 0.000000 0.000000 0.000000 0.000000 0.000000 
